<?xml version="1.0" encoding="utf-8"?>
<!-- Generator: Adobe Illustrator 28.4.1, SVG Export Plug-In . SVG Version: 6.00 Build 0)  -->
<svg version="1.1" id="Layer_1" xmlns="http://www.w3.org/2000/svg" xmlns:xlink="http://www.w3.org/1999/xlink" x="0px" y="0px"
	 viewBox="0 0 595.4 798.8" style="enable-background:new 0 0 595.4 798.8;" xml:space="preserve">
<style type="text/css">
	.st0{opacity:0.85;fill:url(#SVGID_1_);}
	.st1{filter:url(#Adobe_OpacityMaskFilter);}
	
		.st2{opacity:0.85;mask:url(#SVGID_00000138537351320144508450000003022883239523267740_);fill:url(#SVGID_00000180368825157306104240000001777354246182640005_);}
	.st3{opacity:0.57;fill-rule:evenodd;clip-rule:evenodd;fill:url(#SVGID_00000143581580191786673300000012752932523992109709_);}
	.st4{fill:#E6EDE8;}
	.st5{fill:#D5E1D9;}
	.st6{fill:#15582B;}
	.st7{fill:#26643B;}
	.st8{fill:#38714B;}
	.st9{fill:#497D5A;}
	.st10{fill:#5C896B;}
	.st11{fill:#6D967B;}
	.st12{fill:#7FA28A;}
	.st13{fill:#8FAF99;}
	.st14{fill:#A0BBA9;}
	.st15{fill:#B2C8B9;}
	.st16{fill:#C3D4C9;}
	.st17{fill:#FEFEFE;}
	.st18{fill:#E0E8E3;}
	.st19{fill:#F3F6F4;}
	.st20{fill:url(#SVGID_00000037677905743877923830000001011481940155773844_);}
	.st21{fill:url(#SVGID_00000145780392381248241120000001815981297382232984_);}
	.st22{fill:url(#SVGID_00000051343450356377398410000008477603867435472305_);}
	.st23{fill:url(#SVGID_00000054225112413132867380000010380146221298625700_);}
	.st24{fill:url(#SVGID_00000075878731021059798190000015512126110695134094_);}
	.st25{fill:url(#SVGID_00000029759545287695351300000016066563859472585405_);}
	.st26{fill:#C4D82E;}
	.st27{fill:#9FBC2E;}
	.st28{fill:#82A53C;}
	.st29{fill:#009649;}
	.st30{fill:#007042;}
	.st31{fill:#004B23;}
	.st32{fill:#006032;}
	.st33{fill:#008142;}
	.st34{fill:#6E9E75;}
	.st35{fill:#839E64;}
</style>
<linearGradient id="SVGID_1_" gradientUnits="userSpaceOnUse" x1="78.1742" y1="328.319" x2="515.7618" y2="328.319">
	<stop  offset="0" style="stop-color:#6E9E75"/>
	<stop  offset="0.9994" style="stop-color:#008142"/>
</linearGradient>
<path class="st0" d="M270.9,158.3c0,0-53.9-98.2-112-72c-58.2,26.2,34.9,92.3-20.9,130.2c-55.8,37.9-87.3,39.7-27.2,125.5
	c60.1,85.8,178.7,293.8,344.8,215.3c166-78.5-67.7-144.4-27.5-236c40.3-91.6-4.9-120.1-67-104.5
	C298.8,232.4,270.9,158.3,270.9,158.3z"/>
<defs>
	<filter id="Adobe_OpacityMaskFilter" filterUnits="userSpaceOnUse" x="74.1" y="76.7" width="445.8" height="503.3">
		<feFlood  style="flood-color:white;flood-opacity:1" result="back"/>
		<feBlend  in="SourceGraphic" in2="back" mode="normal"/>
	</filter>
</defs>
<mask maskUnits="userSpaceOnUse" x="74.1" y="76.7" width="445.8" height="503.3" id="SVGID_00000087383608163732830010000014398071369322615191_">
	<g class="st1">
	</g>
</mask>
<linearGradient id="SVGID_00000166664326562916533230000017443875423814778551_" gradientUnits="userSpaceOnUse" x1="74.0713" y1="328.319" x2="519.8647" y2="328.319">
	<stop  offset="0" style="stop-color:#004B23"/>
	<stop  offset="0.2708" style="stop-color:#005B2C"/>
	<stop  offset="0.9994" style="stop-color:#008142"/>
</linearGradient>
<path style="opacity:0.85;mask:url(#SVGID_00000087383608163732830010000014398071369322615191_);fill:url(#SVGID_00000166664326562916533230000017443875423814778551_);" d="
	M383.4,98.2c15.1-10.8,32.6-18.1,51-20.6c27.5-3.7,62.4,2.1,82.2,46c36.2,80.2-233.1,495.5-336.7,453.4
	C76.2,534.8,324.6,353.5,176,283.5c-148.5-70-121.3-154.7-4.8-129.7C266,174,354,119.3,383.4,98.2z"/>
<linearGradient id="SVGID_00000091694936853064430360000016706684353024548765_" gradientUnits="userSpaceOnUse" x1="265.8224" y1="236.4031" x2="538.9692" y2="236.4031">
	<stop  offset="0" style="stop-color:#9FBC2E"/>
	<stop  offset="0.9994" style="stop-color:#82A53C"/>
</linearGradient>
<path style="opacity:0.57;fill-rule:evenodd;clip-rule:evenodd;fill:url(#SVGID_00000091694936853064430360000016706684353024548765_);" d="
	M433.8,103.6c73.4,17.4,118.8,90.9,101.5,164.2c-17.3,73.3-90.9,118.7-164.3,101.3c-73.4-17.4-118.8-90.9-101.5-164.2
	C286.9,131.6,360.4,86.3,433.8,103.6z"/>
<g>
	<path class="st4" d="M614.9-109.2c0,14.7,0,29.5,0,44.2c-0.1,0.1-0.2,0.2-0.3,0.3c-15,0-30,0-44.9,0c0-15,0-29.9,0-44.9
		c0.2,0,0.5,0,0.7,0c0.1,0.2,0.2,0.2,0.3,0c14.6,0,29.3,0,43.9,0C614.6-109.4,614.8-109.3,614.9-109.2z"/>
	<path class="st5" d="M567.9-64.6c-15,0-30,0-44.9,0c0-14.1,0-28.2,0-42.3c0-2.3,0-2.3,2.2-2.3c13.5,0,26.9,0,40.4,0
		c0.7,0,1.4,0.2,2-0.3c0.2,0,0.5,0,0.7,0c-0.3,0.9-0.4,1.9-0.4,2.9C567.9-92.6,567.9-78.6,567.9-64.6z"/>
	<path class="st6" d="M55.3-64.6c-14.6,0-29.1,0-43.7,0c-1,0-1.2-0.2-1.2-1.2c0-14.5,0-28.9,0-43.4c14.3,0,28.6,0,42.9,0
		c1.6,0,2.1,0.3,2.1,2c-0.1,14.1,0,28.2,0,42.3C55.4-64.8,55.3-64.7,55.3-64.6z"/>
	<path class="st7" d="M102-64.6c-15,0-30,0-44.9,0c0-0.1,0-0.2-0.1-0.3c0-0.6,0.1-1.3,0.1-1.9c0-13.5,0-27.1,0-40.6
		c0-1.4,0.3-1.8,1.8-1.8c13.5,0.1,27.1,0,40.6,0c2.6,0,2.6,0,2.6,2.6c0,13.9,0,27.8,0.1,41.6C102-64.8,102-64.7,102-64.6z"/>
	<path class="st8" d="M148.6-64.6c-15,0-30,0-44.9,0c0-0.1-0.1-0.2-0.1-0.4c0-14.2,0.1-28.3,0-42.5c0-1.4,0.4-1.8,1.8-1.8
		c13.8,0.1,27.6,0.1,41.5,0c1.4,0,1.8,0.3,1.8,1.8C148.6-93.2,148.6-78.9,148.6-64.6z"/>
	<path class="st9" d="M195.3-64.6c-15,0-30,0-44.9,0c0-0.2-0.1-0.4-0.1-0.7c0-14.2,0-28.4,0-42.6c0-1.4,0.7-1.3,1.6-1.3
		c13.9,0,27.9,0,41.8,0c1.3,0,1.6,0.3,1.6,1.6c-0.1,10.3,0,20.7,0,31C195.2-72.6,195.3-68.6,195.3-64.6z"/>
	<path class="st10" d="M241.6-64.6c-15,0-30,0-44.9,0c0-0.7,0.1-1.4,0.1-2c0-13.6,0-27.2,0-40.8c0-1.4,0.4-1.8,1.8-1.8
		c13.8,0.1,27.6,0.1,41.4,0c1.5,0,1.8,0.4,1.8,1.8c-0.1,13.8,0,27.5,0,41.3C241.7-65.6,241.6-65.1,241.6-64.6z"/>
	<path class="st11" d="M288.3-64.6c-15,0-30,0-44.9,0c0-14.3,0-28.5,0-42.8c0-1.4,0.4-1.8,1.8-1.8c13.7,0.1,27.4,0.1,41.1,0
		c1.7,0,2.2,0.4,2.2,2.1c-0.1,14,0,28.1,0,42.1C288.3-64.8,288.3-64.7,288.3-64.6z"/>
	<path class="st12" d="M334.9-64.6c-15,0-30,0-44.9,0c0-14.2,0-28.5,0-42.7c0-1.4,0.2-1.9,1.8-1.9c13.8,0.1,27.5,0.1,41.3,0
		c1.6,0,1.9,0.5,1.8,1.9C334.9-93,334.9-78.8,334.9-64.6z"/>
	<path class="st13" d="M381.6-64.6c-15,0-30,0-44.9,0c0-0.1-0.1-0.2-0.1-0.3c0-14.1,0.1-28.2,0-42.3c0-1.4,0.3-1.9,1.9-1.9
		c13.8,0.1,27.5,0.1,41.3,0c1.6,0,1.9,0.5,1.9,1.9C381.6-93,381.6-78.8,381.6-64.6z"/>
	<path class="st14" d="M428.2-64.6c-15,0-30,0-44.9,0c0-0.5-0.1-0.9-0.1-1.4c0-13.8,0-27.5,0-41.3c0-1.6,0.5-2,2-2
		c13.5,0.1,26.9,0,40.4,0c2.8,0,2.5-0.3,2.5,2.4C428.2-92.7,428.2-78.6,428.2-64.6z"/>
	<path class="st15" d="M474.6-64.6c-15,0-30,0-44.9,0c0-0.7,0-1.5,0-2.2c0-13.5,0-27.1,0-40.6c0-1.1,0-1.8,1.5-1.8c14,0.1,28,0,42,0
		c1.1,0,1.5,0.3,1.5,1.4C474.6-93.4,474.6-79,474.6-64.6z"/>
	<path class="st16" d="M521.2-64.6c-15,0-30,0-44.9,0c0-14.2,0-28.4,0-42.6c0-1.4,0.3-2,1.9-2c13.8,0.1,27.5,0.1,41.3,0
		c1.4,0,1.9,0.3,1.9,1.8C521.2-93.1,521.2-78.9,521.2-64.6z"/>
	<path class="st17" d="M567.9-64.6c0-14,0-28,0-42.1c0-1,0.1-1.9,0.4-2.9c0.5,0,0.9,0,1.4,0c0,15,0,29.9,0,44.9
		C569-64.6,568.5-64.6,567.9-64.6z"/>
	<path class="st17" d="M570.6-109.5c-0.1,0.2-0.2,0.2-0.3,0C570.4-109.5,570.5-109.5,570.6-109.5z"/>
	<path class="st17" d="M614.9-109.2c-0.1-0.1-0.2-0.2-0.3-0.3C614.8-109.6,614.9-109.5,614.9-109.2z"/>
	<path class="st18" d="M55.4-64.9c0.1,0.1,0.2,0.2,0.3,0.3c-0.1,0-0.2,0-0.3,0C55.3-64.7,55.4-64.8,55.4-64.9z"/>
	<path class="st19" d="M56.7-64.6c0.1-0.1,0.2-0.2,0.3-0.3c0,0.1,0,0.2,0.1,0.3C56.9-64.6,56.8-64.6,56.7-64.6z"/>
	<path class="st19" d="M102-64.9c0.1,0.1,0.2,0.2,0.3,0.3c-0.1,0-0.2,0-0.3,0C102-64.7,102-64.8,102-64.9z"/>
	<path class="st5" d="M103.4-64.6c0.1-0.1,0.2-0.2,0.3-0.4c0,0.1,0.1,0.2,0.1,0.4C103.6-64.6,103.5-64.6,103.4-64.6z"/>
	<path class="st18" d="M288.3-64.9c0.1,0.1,0.2,0.2,0.3,0.3c-0.1,0-0.2,0-0.3,0C288.3-64.7,288.3-64.8,288.3-64.9z"/>
	<path class="st4" d="M336.3-64.6c0.1-0.1,0.2-0.2,0.3-0.3c0,0.1,0.1,0.2,0.1,0.3C336.5-64.6,336.4-64.6,336.3-64.6z"/>
	<path class="st17" d="M614.5-64.6c0.1-0.1,0.2-0.2,0.3-0.3C614.9-64.6,614.8-64.5,614.5-64.6z"/>
</g>
<linearGradient id="SVGID_00000015314219621571443710000018035293678789375109_" gradientUnits="userSpaceOnUse" x1="-368.8019" y1="376.4453" x2="-237.6415" y2="376.4453">
	<stop  offset="0" style="stop-color:#6D967B"/>
	<stop  offset="1" style="stop-color:#38714B"/>
</linearGradient>
<rect x="-368.8" y="310.9" style="fill:url(#SVGID_00000015314219621571443710000018035293678789375109_);" width="131.2" height="131.2"/>
<linearGradient id="SVGID_00000153666839855141848510000012462463590199170225_" gradientUnits="userSpaceOnUse" x1="-368.8019" y1="188.5669" x2="-237.6415" y2="188.5669">
	<stop  offset="0" style="stop-color:#15582B"/>
	<stop  offset="1" style="stop-color:#38714B"/>
</linearGradient>
<rect x="-368.8" y="123" style="fill:url(#SVGID_00000153666839855141848510000012462463590199170225_);" width="131.2" height="131.2"/>
<rect x="-340.4" y="-176.6" class="st6" width="219.8" height="219.8"/>
<linearGradient id="SVGID_00000155111178017186448070000017633736922020548284_" gradientUnits="userSpaceOnUse" x1="868.3596" y1="205.4051" x2="1079.2797" y2="205.4051">
	<stop  offset="0" style="stop-color:#9FBC2E"/>
	<stop  offset="0.9994" style="stop-color:#82A53C"/>
</linearGradient>
<rect x="868.4" y="99.9" style="fill:url(#SVGID_00000155111178017186448070000017633736922020548284_);" width="210.9" height="210.9"/>
<linearGradient id="SVGID_00000008113797348012390200000000479073973896244902_" gradientUnits="userSpaceOnUse" x1="1126.2491" y1="205.4051" x2="1337.1693" y2="205.4051">
	<stop  offset="0" style="stop-color:#004B23"/>
	<stop  offset="0.9994" style="stop-color:#006032"/>
</linearGradient>
<rect x="1126.2" y="99.9" style="fill:url(#SVGID_00000008113797348012390200000000479073973896244902_);" width="210.9" height="210.9"/>
<linearGradient id="SVGID_00000008132401888637014540000006715032505604962231_" gradientUnits="userSpaceOnUse" x1="1126.2491" y1="516.9109" x2="1337.1693" y2="516.9109">
	<stop  offset="0" style="stop-color:#009649"/>
	<stop  offset="0.9994" style="stop-color:#007042"/>
</linearGradient>
<rect x="1126.2" y="411.5" style="fill:url(#SVGID_00000008132401888637014540000006715032505604962231_);" width="210.9" height="210.9"/>
<linearGradient id="SVGID_00000142145648273773287200000003769485798595819701_" gradientUnits="userSpaceOnUse" x1="867.9164" y1="516.9109" x2="1078.8365" y2="516.9109">
	<stop  offset="0" style="stop-color:#6E9E75"/>
	<stop  offset="0.9994" style="stop-color:#008142"/>
</linearGradient>
<rect x="867.9" y="411.5" style="fill:url(#SVGID_00000142145648273773287200000003769485798595819701_);" width="210.9" height="210.9"/>
<rect x="666.3" y="782.3" class="st26" width="109.9" height="109.9"/>
<rect x="793.9" y="782.3" class="st27" width="109.9" height="109.9"/>
<rect x="921.5" y="782.3" class="st28" width="109.9" height="109.9"/>
<rect x="1049.1" y="782.3" class="st29" width="109.9" height="109.9"/>
<rect x="1176.8" y="782.3" class="st30" width="109.9" height="109.9"/>
<rect x="666.3" y="924.1" class="st31" width="109.9" height="109.9"/>
<rect x="793.9" y="924.1" class="st32" width="109.9" height="109.9"/>
<rect x="921.5" y="924.1" class="st33" width="109.9" height="109.9"/>
<rect x="1049.1" y="924.1" class="st34" width="109.9" height="109.9"/>
<rect x="1176.8" y="924.1" class="st35" width="109.9" height="109.9"/>
</svg>
